<?xml version="1.0" standalone="no"?>
<!DOCTYPE svg PUBLIC "-//W3C//DTD SVG 20010904//EN"
 "http://www.w3.org/TR/2001/REC-SVG-20010904/DTD/svg10.dtd">
<svg version="1.0" xmlns="http://www.w3.org/2000/svg"
 width="612.000000pt" height="612.000000pt" viewBox="0 0 612.000000 612.000000"
 preserveAspectRatio="xMidYMid meet">
<metadata>
Created by potrace 1.11, written by Peter Selinger 2001-2013
</metadata>
<g transform="translate(0.000000,612.000000) scale(0.100000,-0.100000)"
fill="#000000" stroke="none">
<path d="M2820 6059 c-950 -83 -1786 -593 -2296 -1401 -79 -126 -209 -388
-259 -523 -184 -497 -236 -997 -160 -1518 113 -765 535 -1471 1162 -1944 339
-254 730 -436 1136 -527 581 -131 1166 -90 1732 119 135 50 397 180 523 259
681 430 1164 1108 1336 1879 131 581 90 1166 -119 1732 -50 135 -180 397 -259
523 -389 617 -978 1069 -1672 1282 -343 106 -765 150 -1124 119z m1216 -1394
c-56 -110 -138 -256 -181 -325 -48 -76 -101 -179 -137 -264 -62 -150 -78 -179
-236 -451 -133 -228 -249 -460 -347 -692 -42 -101 -100 -220 -128 -265 -108
-176 -146 -239 -149 -250 -3 -8 -20 -5 -54 7 -77 29 -75 25 -48 126 37 139 76
229 250 579 89 179 183 381 209 450 73 194 127 288 283 495 145 193 150 202
297 510 36 77 93 188 126 246 l61 107 78 -37 78 -36 -102 -200z m-1573 -2365
c147 -69 197 -97 197 -111 0 -9 -5 -19 -11 -21 -13 -4 2 -168 22 -258 12 -53
49 -95 97 -111 27 -9 39 -21 57 -63 43 -96 102 -126 248 -126 l90 0 33 -36
c19 -19 34 -40 34 -45 0 -5 19 -19 43 -31 35 -19 59 -23 152 -25 61 -1 117 -2
126 -2 8 -1 47 -25 85 -54 91 -69 156 -96 280 -117 109 -18 147 -36 204 -95
53 -55 79 -65 171 -65 l82 0 46 -50 c44 -48 49 -50 129 -64 46 -8 112 -28 147
-45 58 -27 86 -28 71 -2 -10 16 -94 50 -163 66 -136 32 -139 33 -158 70 -25
45 -64 61 -148 57 -78 -3 -108 9 -176 73 -62 57 -76 63 -192 85 -120 23 -188
52 -282 123 l-71 52 -116 0 c-135 1 -183 16 -217 70 -38 58 -63 68 -174 71
-136 3 -178 23 -209 99 -19 47 -30 59 -73 82 -74 41 -83 60 -99 200 -22 200
-163 245 1140 -371 703 -332 1122 -535 1120 -543 -2 -7 -52 -118 -113 -247
l-110 -234 -51 -25 c-28 -14 -107 -60 -175 -103 -68 -43 -158 -92 -199 -110
l-76 -32 -39 21 c-22 11 -65 27 -95 34 -98 26 -159 62 -250 148 -48 46 -102
91 -120 100 -20 10 -83 22 -165 30 -205 21 -254 39 -399 150 -151 115 -184
125 -310 100 -138 -27 -202 -8 -329 97 -96 79 -126 91 -277 108 -121 14 -173
37 -236 107 l-50 57 -90 5 c-103 7 -138 23 -160 77 -16 38 -41 41 -36 4 3 -32
39 -78 75 -97 20 -10 60 -17 108 -18 89 -3 104 -10 144 -64 44 -60 107 -87
247 -105 142 -18 164 -27 253 -101 101 -84 162 -110 255 -109 41 1 110 5 152
9 90 9 104 2 243 -105 44 -34 96 -70 115 -80 70 -36 176 -61 291 -70 64 -5
129 -14 145 -20 16 -6 67 -49 114 -94 93 -92 167 -135 274 -162 36 -9 73 -22
83 -29 17 -13 15 -15 -19 -29 -20 -9 -97 -28 -170 -42 -73 -15 -182 -44 -243
-65 -100 -35 -116 -37 -172 -30 -42 5 -77 17 -111 38 -33 20 -68 32 -108 37
-38 4 -87 21 -139 46 -50 25 -117 48 -180 61 -55 12 -112 27 -127 35 -15 8
-69 50 -119 94 -108 93 -149 110 -275 110 -94 0 -113 6 -204 60 -36 21 -105
51 -155 65 -119 34 -157 55 -237 131 -100 94 -133 108 -248 109 -75 0 -102 -4
-123 -18 -36 -23 -36 -42 1 -32 50 14 186 17 224 5 24 -7 70 -41 127 -94 95
-89 115 -99 260 -137 59 -15 103 -35 147 -65 78 -53 116 -64 228 -64 110 0
142 -14 244 -105 93 -83 128 -100 263 -130 81 -18 127 -35 171 -61 44 -27 76
-39 122 -44 39 -4 81 -17 119 -37 l57 -32 -52 -5 c-392 -44 -721 -40 -822 10
-16 8 -99 28 -184 45 -118 24 -198 48 -336 101 -255 97 -424 166 -473 191 -83
43 -329 217 -380 269 l-52 53 385 815 c212 448 392 829 400 847 l14 32 132
-63 c73 -34 222 -104 331 -156z"/>
<path d="M1890 1881 c0 -29 56 -67 146 -98 81 -29 89 -38 70 -84 -5 -10 2 -27
18 -46 32 -38 111 -60 240 -67 104 -6 178 -36 219 -89 46 -59 100 -109 135
-124 19 -8 75 -19 124 -24 112 -11 142 -24 216 -92 33 -31 74 -63 91 -72 34
-17 145 -34 231 -35 73 -1 130 -28 166 -79 32 -45 90 -78 189 -106 48 -14 80
-16 163 -11 120 8 134 3 197 -75 59 -72 111 -94 310 -128 107 -19 174 -26 179
-20 18 17 -8 26 -149 48 -222 35 -234 40 -317 126 -84 87 -115 102 -189 86
-69 -15 -116 -14 -180 5 -98 29 -155 61 -183 105 -40 59 -92 79 -235 89 -65 5
-134 15 -155 24 -21 9 -67 43 -103 76 -74 67 -116 84 -243 96 -97 8 -133 28
-205 110 -79 90 -127 112 -277 124 -177 16 -209 32 -187 94 17 46 5 59 -79 87
-85 28 -132 51 -156 78 -24 26 -36 27 -36 2z"/>
</g>
</svg>
