<svg id="37cdbc65-9eb8-4396-bb48-3376099dc167" data-name="Layer 2" xmlns="http://www.w3.org/2000/svg" viewBox="0 0 600 600"><title>logoklarsnarte</title><circle cx="300" cy="300" r="297" fill="gray" stroke="#333" stroke-miterlimit="10" stroke-width="4"/><circle cx="300" cy="300" r="297" fill="none" stroke="#333" stroke-miterlimit="10" stroke-width="6"/><path d="M531.57,574l3.77-1c5.23-1.41,5.59-8.17,1.43-11-2.72-1.83-5.26-2-8.43-1.4l7.6,5.79c0.66-6.29,4.66-12.59,7.23-18.26L551.81,529l16.89-37.27,16.51-36.43,8.17-18c2.51-5.55,4.85-11.21,9.34-15.47,5.62-5.32-2.88-13.8-8.49-8.49-9.28,8.79-13.42,22.75-18.57,34.12l-18.15,40.05-18.12,40-9.06,20c-2.8,6.19-5.68,12-6.39,18.86-0.44,4.21,4.17,6.4,7.6,5.79l-0.82.19,1.43-11-3.77,1c-7.45,2-4.29,13.58,3.19,11.57h0Z" transform="translate(-259 -206)" fill="#e6e6e6"/><path d="M531.21,574.48C543,570.55,540.38,557,548.6,549.8l-8.49-8.49a35.85,35.85,0,0,0-10.57,17.2c-1.46,5.22,4.28,9.16,8.81,6.78,5.9-3.1,9.22-10.56,12.19-16.19,3.54-6.72,6.55-13.69,9.56-20.66l-11-4.62c-1.93,5.92-5.09,11.21-8.29,16.51l10.36,6.06a137.21,137.21,0,0,1,9.89-14.82l-11-1.43c0.24,0.85-4.32,4-4.94,4.65a15,15,0,0,0-3.57,6.36l11.57,3.19a32.43,32.43,0,0,1,4.65-11.5c2.53-3.8,6.56-6.38,8.61-10.48,1.9-3.8,1.58-8.3,2.52-12.37a43.69,43.69,0,0,1,5.42-13c4-6.62-6.35-12.65-10.36-6.06a56.27,56.27,0,0,0-5.77,12.71c-1.26,4.12-.78,10.66-3.07,14.13-2.44,3.71-6.19,6.44-8.54,10.38a42.77,42.77,0,0,0-5,13c-1.6,7.51,9.42,10.67,11.57,3.19,0.82-2.84,5.24-4.84,6.92-7.42a11.76,11.76,0,0,0,1.6-10c-1.51-5.44-8-5.33-11-1.43a137.21,137.21,0,0,0-9.89,14.82c-3.87,6.7,6.38,12.67,10.36,6.06,3.74-6.21,7.24-12.46,9.5-19.38,2.07-6.35-8.25-10.92-11-4.62-2.53,5.85-5.05,11.71-7.9,17.42-1.35,2.71-2.77,5.39-4.3,8-1.31,2.25-2.86,5.86-5.25,7.11l8.81,6.78a24.35,24.35,0,0,1,7.49-11.91c5.76-5.19-2.72-13.57-8.49-8.49a28.79,28.79,0,0,0-7.65,10.61c-1,2.47-1.61,10-4.44,11-7.29,2.43-4.16,14,3.19,11.57h0Z" transform="translate(-259 -206)" fill="#e6e6e6"/><path d="M545.69,535.66c-0.19,2.41-2.61,3.54-4.09,5.17a26.56,26.56,0,0,0-3.92,6.2c-2.48,4.91-4.92,10-8.33,14.32-4.71,6,3.73,14.56,8.49,8.49,4.45-5.68,7.58-11.8,10.92-18.16,1.52-2.89,4-4.35,5.87-6.92a16.61,16.61,0,0,0,3.07-9.1c0.61-7.7-11.4-7.66-12,0h0Z" transform="translate(-259 -206)" fill="#e6e6e6"/><path d="M659,319.51a19.79,19.79,0,0,0-4.67-2.19l-1.6,11.79,3.91,0.3q1.08-6.65-1.49-4.33a10.92,10.92,0,0,0-3,2.72c-2.51,3-3.94,7.07-5.61,10.53-3.77,7.81-7.5,15.64-11.82,23.17-4.13,7.2-8.36,14.65-13.28,21.34-2.31,3.14-5.07,5.7-6.64,9.34a29,29,0,0,0-2,10.42h12c-0.2-2.2,0-3.68,1.54-5.34L616.87,396c-0.89-1.53-17.34,13.26-19.57,14.37l8.21,8.21c2-3.18,5-5.73,7.41-8.58,2.57-3,5-6.18,7.31-9.42a121.81,121.81,0,0,0,12.32-21.84c1.67-3.85,3-7.86,4.91-11.6s4.74-7.2,6.68-11.08c4-8.11,7.3-16.72,10.89-25,3-7-7.31-13.14-10.36-6.06-3.47,8.05-6.67,16.31-10.48,24.21-1.89,3.93-4.63,7.28-6.68,11.11s-3.54,8.23-5.29,12.33a118.36,118.36,0,0,1-11.85,21.21c-4.59,6.57-11,11.94-15.22,18.71-3.33,5.4,3.1,10.76,8.21,8.21,6.59-3.28,10.75-9.49,16.87-13.38s11.38-9.93,7-17.4a6.06,6.06,0,0,0-9.42-1.21,17.36,17.36,0,0,0-5.06,13.83c0.71,7.6,11.67,7.83,12,0,0.21-5,2.18-7.41,5.16-11.19a129.94,129.94,0,0,0,7.64-11.45,295.49,295.49,0,0,0,15.58-27.8c2.24-4.58,4.42-9.19,6.65-13.76,1.62-3.32,4.66-4.64,6.45-7.74a8.38,8.38,0,0,0-1.4-10.13c-3.21-3.14-7.93-3.09-12.11-3.41-7.06-.53-7.69,9.71-1.6,11.79a5,5,0,0,1,1.81,1c6.46,4.27,12.48-6.12,6.06-10.36h0Z" transform="translate(-259 -206)" fill="#e6e6e6"/><path d="M568,514.52a132.34,132.34,0,0,0,7.62-16.46q1.56-4.08,2.8-8.27c0.7-2.37,1-5.37,2.89-7.12l-10-5.84L567,487.49c-2.52,6.28,8,10.7,11,4.62,4-8.09,8.22-16,12.55-23.94a104.73,104.73,0,0,1,5.47-9.79c2.25-3.22,5.45-5.49,7.52-8.88,3.8-6.21,6.11-13.53,9-20.21A129.66,129.66,0,0,1,623.7,407.8l-10.36-6.06c-2.61,5.36-5.19,10.74-7.83,16.09-2.43,4.93-4.5,7.75-9.3,10.45-8.32,4.69-11.6,12.36-13.9,21.26l11.79,1.6a45.77,45.77,0,0,1,2.81-14.07c0.69-2,2.52-10.08,4.78-10.82l-7.38-4.19c0.94,2.68.76,4.83-1.3,6.93-5.41,5.52,3.07,14,8.49,8.49a17.85,17.85,0,0,0,4.39-18.6c-1-2.94-4.12-5.26-7.38-4.19-6.7,2.2-8.9,8.06-11.28,14.15-2.82,7.23-5,14.5-5.12,22.31-0.14,6.75,10.08,8.17,11.79,1.6,1-3.67,1.81-7.85,4.23-10.88,2.82-3.53,7.75-4.62,11-7.76,7-6.69,10.42-17.77,14.56-26.29,3.38-6.94-6-12.51-10.36-6.06a130.24,130.24,0,0,0-11.21,21.49c-2.82,6.58-5,14.21-9,20.21-2,3-5,5.15-7,8.16-2.26,3.31-4,7-6,10.51-4.33,7.91-8.57,15.86-12.55,23.94l11,4.62L582.85,480c2.38-5.93-6-9.56-10-5.84-4.43,4.12-5.21,10.25-7,15.75a110.61,110.61,0,0,1-8.16,18.53c-3.71,6.78,6.64,12.84,10.36,6.06h0Z" transform="translate(-259 -206)" fill="#e6e6e6"/><path d="M381.15,741.08l0.29,0.29c8.75,6.11,17.31,12.5,26.58,17.81a4.6,4.6,0,0,1,2.21,2.63l2.75,1.26q5.05,2.35,10.15,4.5c1.91,0.65,3.8,1.3,5.6,2,2.07,0.83,4.1,1.74,6.09,2.73,6.32,2.48,12.69,4.85,19.1,7.23,8.57,3.18,17,6.67,25.55,10,8.55,1.71,17.06,3.74,25.63,5.29a4.58,4.58,0,0,1,2.23.38h0c1,0.17,2,.34,3,0.49a4.1,4.1,0,0,1,2.9,1.7,92.88,92.88,0,0,0,20.65,4.1l0.74,0c4.42-.07,8.81.2,13.21,0.53,15.74-.14,31.74-2.36,47.36-3.18,6.68-.84,13.33-1.77,19.94-2.87,3.23-1.11,6.43-2.36,9.64-3.61a109.68,109.68,0,0,1,23.14-6.19c8.37-1.32,16.76-3.19,24.39-6.93,4.4-2.16,8.71-4.37,13.33-5.64q7.08-3.78,13.93-8.11l4.85-3a80.26,80.26,0,0,1,13.78-8.07c2.25-1.2,4.54-2.34,6.87-3.4l24-50.74L451.57,559.69l-81,171.41C374.27,734.22,377.73,737.66,381.15,741.08Z" transform="translate(-259 -206)" fill="#e6e6e6" stroke="#333" stroke-miterlimit="10" stroke-width="2"/><path d="M670.81,325a179.11,179.11,0,0,1-20.69-9.71c-1.69-.93-3.21,1.66-1.51,2.59a185.27,185.27,0,0,0,21.4,10c1.8,0.71,2.58-2.19.8-2.89h0Z" transform="translate(-259 -206)" fill="#333"/><path d="M666.59,325.78c-9.25,15.85-15.74,32.9-25.81,48.35-4.87,7.48-9.85,14.94-13.47,23.13-3.81,8.63-6.6,17.52-11.13,25.84-9,16.41-18.95,32.24-27.83,48.7a479.25,479.25,0,0,0-23,49c-3.94,9.82-8.15,19.33-13.85,28.27-5.32,8.35-11.1,16.37-15.12,25.46-0.77,1.75,1.81,3.28,2.59,1.51,7.12-16.11,18.83-29.52,25.75-45.82,7.22-17,14.16-33.94,22.75-50.34,8.67-16.56,18.22-32.63,27.63-48.78s14.37-33.83,24.4-49.48c5.54-8.64,11.19-17.1,15.74-26.32s8.7-19,14-28a1.5,1.5,0,0,0-2.59-1.51h0Z" transform="translate(-259 -206)" fill="#333"/><path d="M524.94,568.08c6.71-36.22,28.48-66.63,43-99.82,3.62-8.25,6.49-16.78,9.86-25.13a115.08,115.08,0,0,1,14-24.86c10.47-14.39,22.73-27.39,30.18-43.75,4.51-9.9,8.46-20,13.53-29.62,5.43-10.35,11.45-20.37,17.46-30.39a1.5,1.5,0,0,0-2.59-1.51c-10.3,17.15-20.16,34.34-27.91,52.82a130.05,130.05,0,0,1-13.68,25.38c-5.25,7.42-11.12,14.37-16.62,21.6A125.1,125.1,0,0,0,578,435.32c-3.9,8.31-6.66,17.08-10.1,25.58-7.06,17.42-16.37,33.79-24.89,50.5-9.08,17.79-17.27,36.14-20.93,55.89-0.35,1.89,2.54,2.7,2.89.8h0Z" transform="translate(-259 -206)" fill="#333"/><path d="M670.52,327.32c1.8-5.75,9-14.47,6.59-20.86-2.26-6-12.21-3.59-16.51-2.06-3.53,1.26-14.52,6.16-11.8,11.71,2.64,5.38,8.08-4.06,9.46-6l-2.74-.36,0.25,1.64a1.52,1.52,0,0,0,2.2.9,23.37,23.37,0,0,0,6.67-4.71l-2.36-1.82-1.83,2.49a1.51,1.51,0,0,0,1.82,2.36,46.18,46.18,0,0,0,6.91-4.63l-2.36-.3,0.11,2.75,2.74,1.16,0.66-1.74h-2.89l0.31,1.72a1.51,1.51,0,0,0,2.51.66l0.33-1.1c-0.49,1.59,2,2.71,2.74,1.16,0.83-1.76,1.8-4.74-.41-6-2-1.13-3.8.95-4.43,2.67-0.57,1.56-.43,3.32,1.16,4.17,2.58,1.38,4.34-1.25,5.19-3.27h-2.89L671,312.69l2.74,1.16,1-4.46a1.5,1.5,0,0,0-2.89-.8,42.88,42.88,0,0,1-5.07,9.2l2.8,0.76a6.86,6.86,0,0,1,2-5L669,312.45a38.41,38.41,0,0,1-1.08,8.56l2.95,0.4a23.18,23.18,0,0,1,1.9-7.49L670,312.76l-3,7.79c-0.63,1.65,1.86,2.53,2.74,1.16a47.56,47.56,0,0,0,4.43-8.83h-2.89q1.7,3.49-2.1,4.22-2.08,2.6-4.2.4a1.51,1.51,0,0,0-2.26,1.3,3.23,3.23,0,0,0,.47,2c0.54,0.89,3.3,1.73,3.4,2.49l2.26-1.3a68.39,68.39,0,0,0-8.17-4.58c-3-1.39-6.13-2.26-8.38-4.81l-0.66,2.51,9.32-2.63-1.16-2.74a14.9,14.9,0,0,0-6.05,4.57,1.52,1.52,0,0,0,.66,2.51,68.63,68.63,0,0,0,8.55,2c1.12,0.19,2.56-1,1.69-2.2a10.94,10.94,0,0,0-4.26-3.64l-0.36,2.74,3.94,2.4,1.9-1.45c-2.93-.86-3.27-5.08-6.94-5.25a4.32,4.32,0,0,0-4.48,3.52,1.55,1.55,0,0,0,1,1.85c2.86,1.16,6.9,2.64,9.66.55a11.2,11.2,0,0,0,3.81-8,1.55,1.55,0,0,0-1.1-1.45c-2.43-.85-4.78.09-7,1.1a1.51,1.51,0,0,0,.36,2.74,13.94,13.94,0,0,0,8.09-.75c1.75-.7,1.06-3.53-0.8-2.89a32.88,32.88,0,0,0-10.37,5.76c-1.38,1.12.38,3.1,1.82,2.36,2.54-1.31,5.11-2.53,7.72-3.67l-2.26-1.3-0.06,2.6c0,1.2,1.74,2.11,2.56,1.06,2.6-3.31,8.35-10.94,2.94-14.32-4.17-2.61-11.52.55-13.55,4.6-0.61,1.22.73,3,2.05,2.05a12.76,12.76,0,0,1,6.5-2.51l-0.4-2.95c-2.18.66-4.83,0.41-6.79,1.78-2.16,1.51-2.54,4.38-4.59,6l2.05,2.05a46.26,46.26,0,0,1,3-4.34c1.07-1.4-1.16-2.92-2.36-1.82a13.3,13.3,0,0,0-2.4,2.93c-0.88,1.41,1.27,3.16,2.36,1.82l3.21-4a1.51,1.51,0,0,0-1.82-2.36,7.44,7.44,0,0,0-4.13,5.87c-0.22,1.52,1.93,2.83,2.74,1.16l1.66-3.42a1.51,1.51,0,0,0-2.36-1.82,14.17,14.17,0,0,0-4,5,1.48,1.48,0,0,0,.39,1.46c4.74,5,13.12,1.5,16.61-3.11,0.92-1.22-.85-2.81-2.05-2.05-4,2.51-9.63,9.15-3.81,13.15,5.08,3.49,7.9-2.51,8-6.73a1.51,1.51,0,0,0-2.95-.4l-1.26,4.65a1.5,1.5,0,0,0,2.89.8c0.95-2.88,1.61-7.92,3.41-10.38,1-1.36,2.52-1.5,2.87-3.29,0.73-3.8-3.53-4.59-6.23-4.27a1.52,1.52,0,0,0-1.06,2.56,9.75,9.75,0,0,1,2.63,5.59c0.21,1.33,2.14,1.38,2.74.36,3.18-5.34-4.24-8-7.88-4.35-1.86,1.86-4,6.54-3.2,9.2,0.62,2,2.71,3.35,4.7,2.33,4.78-2.44-.08-10.3-4.74-7.17a4.44,4.44,0,0,0-1.31,6.11c1.72,2.63,5,2.56,7.61,1.63,1.81-.64,1-3.54-0.8-2.89q-3,1.75-2-3.47,0.53-4.28,5-2.9l2.74,0.36a12.32,12.32,0,0,0-3.4-6.92l-1.06,2.56c3.59-.42,1.36,1.86.66,3.3-1.61,3.29-2.45,7.36-3.59,10.84l2.89,0.8,1.26-4.65-2.95-.4q0.36,3.49-2.73-1.53a15.3,15.3,0,0,1,3.07-2.31l-2.05-2.05a9.48,9.48,0,0,1-7.31,3.9c-4.15.15-3-1.72-1-3.62l-2.36-1.82-1.66,3.42,2.74,1.16a4.46,4.46,0,0,1,2.75-4.07l-1.82-2.36-3.21,4,2.36,1.82a7.21,7.21,0,0,1,1.93-2.32l-2.36-1.82a46.26,46.26,0,0,0-3,4.34c-0.72,1.2.82,3,2.05,2.05a13.55,13.55,0,0,0,2.94-3.52c2-2.82,4.69-3,7.72-3.91,1.55-.47,1.35-3.12-0.4-2.95a15.59,15.59,0,0,0-8,2.92l2.05,2.05c1-2.05,4.87-4.5,7.41-3.87,5.6,1.4,0,8-1.52,10l2.56,1.06,0.06-2.6a1.52,1.52,0,0,0-2.26-1.3c-2.62,1.14-5.19,2.36-7.72,3.67l1.82,2.36a28.59,28.59,0,0,1,9-5l-0.8-2.89a11.2,11.2,0,0,1-6.5.75l0.36,2.74,4.71-.8-1.1-1.45a5.79,5.79,0,0,1-5.56,5.83,12.1,12.1,0,0,1-4.11-1.29l1,1.85c0.38-1.56,6.29,3.4,7.73,3.82a1.51,1.51,0,0,0,1.9-1.45c-0.21-4.38-3.48-6.88-7.73-5.3-1.1.41-1.62,2.12-.36,2.74a6.64,6.64,0,0,1,3.19,2.56l1.69-2.2a68.63,68.63,0,0,1-8.55-2l0.66,2.51a13.36,13.36,0,0,1,5.45-4.1c1.58-.68.45-3.19-1.16-2.74l-9.32,2.63a1.52,1.52,0,0,0-.66,2.51c1.92,2.18,4.27,3.2,6.9,4.36a74.1,74.1,0,0,1,10.26,5.5,1.51,1.51,0,0,0,2.26-1.3,3.91,3.91,0,0,0-.56-2c-0.55-.83-3.28-1.61-3.31-2.49l-2.26,1.3c5.88,4.14,12.94-1.22,10.71-8a1.51,1.51,0,0,0-2.89,0,43.84,43.84,0,0,1-4.12,8.12l2.74,1.16,3-7.79c0.6-1.57-2.07-2.72-2.74-1.16a29.09,29.09,0,0,0-2.31,9c-0.16,1.69,2.55,2,2.95.4a41.83,41.83,0,0,0,1.19-9.36,1.52,1.52,0,0,0-2.56-1.06,11.25,11.25,0,0,0-2.9,7.15c-0.09,1.62,2,1.86,2.8.76a46.12,46.12,0,0,0,5.37-9.91l-2.89-.8-1,4.46a1.51,1.51,0,0,0,2.74,1.16,9.7,9.7,0,0,0,1.25-7.18c-0.27-1.65-2.4-1.17-2.89,0l-1.21,1.71,2.74,1.16c1.21-3.94-3.34-3.68-5.34-1.82l2.51,0.66L670.33,307c-0.29-1.6-2.42-1.23-2.89,0l-0.66,1.74c-0.6,1.59,2,2.66,2.74,1.16a5.35,5.35,0,0,0-.11-5.77,1.53,1.53,0,0,0-2.36-.3,41.66,41.66,0,0,1-6.3,4.16l1.82,2.36a19.86,19.86,0,0,0,2.3-3.1,1.51,1.51,0,0,0-2.36-1.82,21.27,21.27,0,0,1-6.06,4.24l2.2,0.9-0.25-1.64c-0.21-1.4-2.09-1.29-2.74-.36-0.51.73-4.81,5.22-4.63,6-0.34-1.38,4.8-4.52,5.65-5a26,26,0,0,1,12.12-3.78c7.94-.3,4.66,7.62,2.75,11.66a69.89,69.89,0,0,0-3.94,9.12c-0.58,1.85,2.32,2.64,2.89.8h0Z" transform="translate(-259 -206)" fill="#333"/><path d="M623.42,368.85a9.58,9.58,0,0,0-5.57-3.36,28.36,28.36,0,0,1-8.79-4.06c-1.58-1.11-3.08,1.49-1.51,2.59a28.59,28.59,0,0,0,6.28,3.35c2.18,0.83,5.51,1,7,3,1.15,1.53,3.75,0,2.59-1.51h0Z" transform="translate(-259 -206)" fill="#333"/><path d="M625.66,360.16A81.78,81.78,0,0,1,611.12,355c-1.74-.81-3.26,1.77-1.51,2.59a86,86,0,0,0,15.26,5.49c1.87,0.48,2.67-2.41.8-2.89h0Z" transform="translate(-259 -206)" fill="#333"/><path d="M623.19,322.44c-8.34,13.61-12.83,29.21-21.92,42.4-8.89,12.89-16.7,25.31-21.46,40.36a1.52,1.52,0,0,0,1.45,1.9l6.5,0.81a1.53,1.53,0,0,0,1.5-1.5c1.05-9.9,8.94-17,13.54-25.61a127.67,127.67,0,0,0,5.7-11.46c2-4.82,2.59-10.37,5.35-14.83,2.42-3.91,5.77-7.06,8-11.09s4.12-8.53,6.07-12.83c1-2.1,3.41-5.49,2-7.88-1-1.79-3.39-1.88-5.21-1.72s-1.93,3.17,0,3c4-.36-1.14,8.9-2.06,10.92A60.24,60.24,0,0,1,617,345.56c-2.37,3.26-5.22,6-6.93,9.67-1.47,3.19-2.09,6.67-3.2,10a94.69,94.69,0,0,1-12,23.06c-2.13,3.05-5,5.76-6.62,9.14-1.36,2.82-1.67,5.93-2,9l1.5-1.5-6.5-.81,1.45,1.9A118.13,118.13,0,0,1,592,384.24c3.8-6.85,8.62-12.92,12.94-19.43C613.39,352,617.76,337,625.78,324c1-1.65-1.58-3.16-2.59-1.51h0Z" transform="translate(-259 -206)" fill="#333"/><path d="M623.5,324.59a49.71,49.71,0,0,1-3.23,11.64l2.95,0.4,0.44-5.28c0.14-1.73-2.48-2-2.95-.4a91.58,91.58,0,0,1-6.38,16l2.74,0.36a19.46,19.46,0,0,1,.82-9.4l-2.89-.8A43.26,43.26,0,0,1,608.55,354l2.74,1.16a23.53,23.53,0,0,1,4.21-7.86L613,345.88a115.7,115.7,0,0,1-4.53,14.18l2.95,0.4a26.25,26.25,0,0,1,1.49-5.89l-2.89-.8a89.57,89.57,0,0,1-3.58,10.68l2.89,0.8,3.65-11.6c0.58-1.85-2.3-2.63-2.89-.8a103.64,103.64,0,0,1-8.46,19.27l2.8,0.76a24.11,24.11,0,0,1,3.27-9.42L605,362.3a68.8,68.8,0,0,1-10.6,18.94l2.51,1.46a95.55,95.55,0,0,1,6.17-12.5L600.29,369a64,64,0,0,1-8.63,15.71l2.59,1.51a35,35,0,0,1,7.7-10.59l-2.51-1.46a23.69,23.69,0,0,1-5,8.68l2.36,1.82,3.57-7.18L597.82,376l-6.45,14,2.8,0.76a6.43,6.43,0,0,1,1.91-4.88L593.72,384l-6.58,11.51,2.74,1.16a86.94,86.94,0,0,1,2.62-8.95l-2.89-.8a52.64,52.64,0,0,1-3.16,9.62l2.74,1.16a38.52,38.52,0,0,1,3.23-8.59L589.69,388a23.8,23.8,0,0,1-3.92,9.44l2.59,1.51,1.2-2.23c0.77-1.42-1.25-3.21-2.36-1.82a22.41,22.41,0,0,0-4.38,8.78,1.51,1.51,0,0,0,2.74,1.16l4.28-5.65-2.59-1.51a18.24,18.24,0,0,0-2.6,9.36,1.51,1.51,0,0,0,2.8.76l6.3-11.75-2.59-1.51-3.29,6.94,2.74,1.16c4.51-19.49,15-36.54,25.66-53.21l-2.74-1.16-3.13,10.86c-0.55,1.89,2.21,2.56,2.89.8A171.86,171.86,0,0,1,620.95,343l-2.59-1.51-5.61,12.24c-0.92,2-3,4.91-2.91,7.18,0.19,4.38,8.21,3.31,10.86,3.23a1.51,1.51,0,0,0,.76-2.8,20,20,0,0,0-7.16-2.85,1.51,1.51,0,0,0-1.16,2.74,25.34,25.34,0,0,0,8.42,3.17c1.87,0.35,2.69-2.43.8-2.89a29.57,29.57,0,0,0-8.3-.86,1.51,1.51,0,0,0-.4,2.95,55.15,55.15,0,0,1,8.25,3.25l1.16-2.74a25,25,0,0,1-6.42-1.79,1.5,1.5,0,0,0-1.51,2.59c2.78,2.12,9.45,4.29,10-1.39,0.49-5.48-8.82-4.35-11.83-4.2a1.51,1.51,0,0,0-.76,2.8,11.6,11.6,0,0,0,10.18,2.06,1.52,1.52,0,0,0,.36-2.74,23.16,23.16,0,0,0-10.37-3.22c-1.93-.15-1.92,2.85,0,3a19.51,19.51,0,0,1,8.85,2.81l0.36-2.74A8.76,8.76,0,0,1,614,359.5l-0.76,2.8a48.58,48.58,0,0,1,5.37,0c4.84,0.3,0,1.55-2,0l-1.51,2.59a28.91,28.91,0,0,0,7.13,2.09c1.53,0.24,2.82-1.93,1.16-2.74a59.8,59.8,0,0,0-9-3.55l-0.4,2.95a26.85,26.85,0,0,1,7.5.76l0.8-2.89a23.33,23.33,0,0,1-7.7-2.87l-1.16,2.74a18,18,0,0,1,6.44,2.54l0.76-2.8c-1.17,0-5.42.64-6.3-.18-1.65-1.51.3-4.31,0.94-5.71L620.95,343c0.79-1.73-1.69-3.25-2.59-1.51a179,179,0,0,0-8,17.61l2.89,0.8L616.42,349a1.51,1.51,0,0,0-2.74-1.16c-10.79,16.89-21.39,34.19-26,53.93-0.36,1.58,2,2.76,2.74,1.16l3.29-6.94c0.82-1.72-1.67-3.24-2.59-1.51l-6.3,11.75,2.8,0.76a15.26,15.26,0,0,1,2.19-7.85c1-1.71-1.46-3-2.59-1.51L583,403.28l2.74,1.16a18.71,18.71,0,0,1,3.61-7.46L587,395.16l-1.2,2.23a1.5,1.5,0,0,0,2.59,1.51,25.62,25.62,0,0,0,4.22-10.15c0.29-1.57-1.91-2.76-2.74-1.16a41.77,41.77,0,0,0-3.53,9.31c-0.39,1.58,2,2.77,2.74,1.16a56.78,56.78,0,0,0,3.46-10.33,1.5,1.5,0,0,0-2.89-.8,86.94,86.94,0,0,0-2.62,8.95,1.51,1.51,0,0,0,2.74,1.16l6.58-11.51c0.82-1.43-1.21-3.15-2.36-1.82a10.68,10.68,0,0,0-2.79,7c-0.06,1.43,2.16,2.12,2.8.76l6.45-14c0.8-1.73-1.72-3.26-2.59-1.51l-3.57,7.18c-0.71,1.44,1.16,3.17,2.36,1.82a27.78,27.78,0,0,0,5.72-10,1.51,1.51,0,0,0-2.51-1.46,37.39,37.39,0,0,0-8.17,11.2,1.5,1.5,0,0,0,2.59,1.51,66.8,66.8,0,0,0,8.93-16.42c0.61-1.62-1.9-2.59-2.74-1.16A101.07,101.07,0,0,0,594,381.9c-0.55,1.36,1.6,2.61,2.51,1.46a73.4,73.4,0,0,0,11.37-20.26c0.6-1.62-1.9-2.59-2.74-1.16a28,28,0,0,0-3.68,10.94c-0.19,1.53,2.11,2,2.8.76a107.54,107.54,0,0,0,8.76-20l-2.89-.8-3.65,11.6c-0.59,1.89,2.19,2.54,2.89.8a89.57,89.57,0,0,0,3.58-10.68c0.5-1.89-2.24-2.59-2.89-.8a30.62,30.62,0,0,0-1.6,6.69c-0.24,1.81,2.38,1.83,2.95.4a115.7,115.7,0,0,0,4.53-14.18c0.34-1.34-1.51-2.69-2.51-1.46a27.74,27.74,0,0,0-5,9.19c-0.54,1.67,1.85,2.54,2.74,1.16a45.15,45.15,0,0,0,6.76-17.64,1.5,1.5,0,0,0-2.89-.8,23.06,23.06,0,0,0-.82,11,1.51,1.51,0,0,0,2.74.36,95.66,95.66,0,0,0,6.68-16.72l-2.95-.4-0.44,5.28c-0.15,1.84,2.36,1.82,2.95.4a49.71,49.71,0,0,0,3.23-11.64c0.29-1.89-2.6-2.7-2.89-.8h0Z" transform="translate(-259 -206)" fill="#333"/><path d="M523.29,569.89q5.77,3.88,11.87,7.22c1.69,0.93,3.21-1.66,1.51-2.59q-6.1-3.34-11.87-7.22c-1.61-1.08-3.11,1.52-1.51,2.59h0Z" transform="translate(-259 -206)" fill="#333"/><path d="M522.86,568.69a9,9,0,0,0-.63,4.19,29.89,29.89,0,0,1-1.43,8.84c-1.46,4.72-3.16,9.17-2.93,14.19a1.51,1.51,0,0,0,2.95.4c1.69-4.12,5.89-6,9.06-8.82a18.2,18.2,0,0,0,3.62-4.34c1.17-1.92,2.81-3.85,3.84-5.76,3.32-6.18-10.09-8.35-13.69-9.4a1.51,1.51,0,0,0-1.46,2.51A38.79,38.79,0,0,1,528,577.6c0.85,1.42,3.3.5,2.74-1.16l-1.6-4.77-1.85,1.85q5.65,2.45,2.22,7.55l2.56,1.06a7.45,7.45,0,0,1,2-4.91l-2.59-1.51a19.5,19.5,0,0,1-5,6.53l2.51,0.66a14,14,0,0,1-.19-6.49c0.24-1.53-1.93-2.82-2.74-1.16a43.92,43.92,0,0,0-2.5,6.31l2.95,0.4a59,59,0,0,1,.73-8.9c0.3-1.86-2.43-2.71-2.89-.8A45,45,0,0,0,523,581.8c0,1.43,2.14,2.12,2.8.76a12.53,12.53,0,0,1,2.44-3.83l-2.51-1.46a10.28,10.28,0,0,1-2.38,4.86l2.36,1.82a22.76,22.76,0,0,1,4.75-6l-2.36-1.82a22,22,0,0,1-6.63,7.64l2.26,1.3,1.26-3.55H522.4c0.85,1.2-1.23,4.81-1.67,6a1.51,1.51,0,0,0,2.2,1.69,46.08,46.08,0,0,0,5.94-4.93,1.51,1.51,0,0,0-1.82-2.36,13,13,0,0,0-3.69,2.89,1.5,1.5,0,0,0,2.12,2.12,27.49,27.49,0,0,1,4.45-3.29l-2.05-2.05a22.21,22.21,0,0,1-6.12,7.32l2.05,2.05,9.06-14.31c1-1.64-1.56-3.14-2.59-1.51l-9.06,14.31c-0.76,1.2.83,3,2.05,2.05a25.68,25.68,0,0,0,7.2-8.4,1.51,1.51,0,0,0-2.05-2.05,31.06,31.06,0,0,0-5.06,3.76l2.12,2.12a7.48,7.48,0,0,1,3.08-2.42l-1.82-2.36a41.63,41.63,0,0,1-5.33,4.46l2.2,1.69c0.93-2.56,3.15-5.83,1.37-8.35a1.52,1.52,0,0,0-2.59,0,10.44,10.44,0,0,0-1.67,5.06,1.51,1.51,0,0,0,2.26,1.3,25.37,25.37,0,0,0,7.7-8.71,1.51,1.51,0,0,0-2.36-1.82,25,25,0,0,0-5.22,6.6c-0.79,1.42,1.27,3.21,2.36,1.82a16.28,16.28,0,0,0,3.16-6.19c0.37-1.36-1.51-2.65-2.51-1.46a20.47,20.47,0,0,0-2.91,4.44l2.8,0.76a41.39,41.39,0,0,1,1.16-8.74l-2.89-.8a64.56,64.56,0,0,0-.84,9.7,1.51,1.51,0,0,0,2.95.4,39.11,39.11,0,0,1,2.2-5.6l-2.74-1.16a21.77,21.77,0,0,0,.19,8.09,1.52,1.52,0,0,0,2.51.66,21.08,21.08,0,0,0,5.48-7.14,1.5,1.5,0,0,0-2.59-1.51,11.46,11.46,0,0,0-2.39,6.43,1.51,1.51,0,0,0,2.56,1.06c3.77-4.66,2.16-10.59-3.54-12.56a1.51,1.51,0,0,0-1.85,1.85l1.6,4.77,2.74-1.16a41.93,41.93,0,0,0-6.24-7.72l-1.46,2.51c2.09,0.61,11.21,2.23,11.6,5.2,0,0.2-2.26,3.2-2.42,3.49a23,23,0,0,1-3.34,5c-3.77,3.89-8.59,5.68-10.76,11l2.95,0.4c-0.23-5,1.64-9.42,3.05-14.15a30.58,30.58,0,0,0,1.22-5.56c0.19-1.84-.44-4.28.31-6s-1.82-3.28-2.59-1.51h0Z" transform="translate(-259 -206)" fill="#333"/><path d="M727.88,714.66c-8-5-15.82-6.41-24.86-8-2.69-.48-4.79-1.41-6.17-3.89-0.74-1.33-1.14-2.78-2.23-3.91-2-2.09-5-2.93-7.76-3.14-4.9-.37-9.9,1.46-14.58-0.66-4-1.79-6.74-5.35-9.91-8.21-6.16-5.57-12.58-5.78-20.43-7.11-10.13-1.71-18.36-5.87-26.19-12.41-2.37-2-4.91-4-8-4.83-4.19-1.11-8.16.5-12.34,0.7a35.92,35.92,0,0,1-14.91-3c-4.12-1.77-4.14-5.73-7.27-8.4-6.7-5.7-16.57-1.41-24.34-3.68-3-.88-6.67-2.36-8.88-4.7-2-2.13-2-4.77-3-7.29-1.31-3.16-3.79-4.51-6.77-5.86-3.22-1.46-5.61-2.24-7.25-5.73-1.22-2.61-1.38-5.59-1.72-8.41-0.74-6.17-1.43-12.34-2.14-18.51-0.22-1.9-3.22-1.92-3,0L518,613.27c0.47,4.1.58,8.74,2.3,12.57a12,12,0,0,0,6.35,6.07,47.7,47.7,0,0,1,4.86,2.16c3.35,2.11,2.91,5.54,4.45,8.64,3.19,6.41,12.51,9.06,19.09,9.28,4.69,0.16,10.24-1.42,14.61.92,3.73,2,3.89,6.45,7.26,8.77,7,4.82,16.77,4.66,24.67,3.6,6.23-.84,9.81,2.32,14.28,6.05a47.53,47.53,0,0,0,11,7,57.76,57.76,0,0,0,12.69,4c4.65,0.9,9.66.76,14.14,2.35,7.13,2.54,10.72,10.23,17.6,13.23,4.92,2.15,9.78.47,14.9,0.74,4.07,0.21,6.26,2.18,8.09,5.62a9.1,9.1,0,0,0,2.91,3.48c3.45,2.37,8.36,2,12.28,2.75a47.52,47.52,0,0,1,16.91,6.76c1.64,1,3.14-1.56,1.51-2.59h0Z" transform="translate(-259 -206)" fill="#333"/><path d="M710,737.71l-18.47-3.14c-5.62-1-11.51-1.54-16.92-3.41-5.65-1.95-8.83-5.76-12.48-10.19-2.28-2.76-4.79-5.57-8.27-6.77-5.07-1.76-10.06.58-15.14,1-7.05.53-14-2-20.39-4.57-3.42-1.38-6.36-2.48-8.49-5.6a27.34,27.34,0,0,0-3.58-4.83c-3.07-2.92-7.27-4.41-11.37-5.13-11.23-2-22.54,1.23-31.86-7.08-3.24-2.89-6.07-6.3-9.71-8.73-4-2.67-8.5-3.62-13.21-4.07-5.68-.54-11.82-0.25-17-3.11-4.57-2.54-7.51-7.15-10.86-11-6.23-7.16-13.82-9.25-23-9.82-5.62-.35-11.44-0.22-16.84-2a19.36,19.36,0,0,1-3.5-1.54c-3-1.75-2-3.52-1.09-6.21,0.37-1.13,1.15-1.65.8-3.08-0.87-3.56-6.51-4.65-9.32-5.57-6-2-12.11-3.64-16.21-8.83-1.2-1.51-3.31.62-2.12,2.12a22.6,22.6,0,0,0,9.4,6.79c2.7,1.14,15.48,3.61,14,7.58-0.38,1.06-1.58,1.47-1.8,2.82a5.55,5.55,0,0,0,1.2,4c2.13,3,6.37,4.55,9.83,5.41,9.79,2.44,20.95-.2,30,4.84,8.46,4.69,11.59,15.23,21.15,18.57,4.65,1.63,9.64,1.57,14.48,2,7.2,0.66,12.09,2.83,17.27,7.83,3.11,3,6.13,6.28,10,8.32,4.59,2.42,9.81,2.88,14.91,3,5.38,0.16,10.87-.15,16.08,1.48a16,16,0,0,1,7.51,4.54c1.93,2.23,2.83,4.92,5.22,6.78,3.37,2.61,8.58,4.09,12.52,5.45,5.7,2,11.68,3.27,17.73,2.48,3.65-.48,7.57-2.08,11.28-1.23,3.09,0.71,5.34,3,7.32,5.35,3.09,3.6,5.69,7.46,9.89,9.89,5.42,3.13,11.91,3.83,18,4.86l22.17,3.77c1.89,0.32,2.7-2.57.8-2.89h0Z" transform="translate(-259 -206)" fill="#333"/><path d="M660.64,771.36a49.31,49.31,0,0,1-25.44-15c-5.36-5.91-9.89-10.62-18.18-11.69-10-1.29-19.64-.92-29.37-4.15C578.4,737.4,571.27,732,563.77,726c-5.41-4.32-11.46-8.66-18.67-8.74-4,0-7.78,1.56-11.7,2.23a32.58,32.58,0,0,1-15.87-1.36c-9.06-3.1-14.49-10.92-22.59-15.5-7.85-4.43-16.93-3.73-25.53-5.16-5.29-.88-10.56-2.61-14.24-6.7-2.62-2.92-4.16-6.52-7.92-8.23s-8-1-12-1.09c-6.81-.12-12.27-3.43-13.95-10.35-0.46-1.88-3.35-1.08-2.89.8A16,16,0,0,0,432,684.26c4.26,0.51,9-.81,13.1.62,4.73,1.63,6.55,7.23,10.3,10.22,6.3,5,14.71,5.52,22.4,6.24,5.65,0.53,11.31,1.27,16.27,4.25,4.28,2.58,7.74,6.26,11.64,9.33A36.21,36.21,0,0,0,529,722.86c4.07-.09,7.78-1.26,11.73-2.09,5.61-1.19,10.51.18,15.3,3.21,7.65,4.84,13.75,11.52,21.9,15.67a71.24,71.24,0,0,0,25.92,7.18c5.52,0.5,11.35-.05,16.71,1.57,6.09,1.85,9.46,6.87,13.63,11.26a51.69,51.69,0,0,0,25.65,14.6c1.88,0.45,2.68-2.44.8-2.89h0Z" transform="translate(-259 -206)" fill="#333"/><path d="M406,721c3.35-3,8.55-2.68,12.81-2.61,4.87,0.07,9.65.67,13.86,3.31,5.87,3.69,9.58,10,15.15,14.06,5.89,4.31,13.11,5.52,20,7.31a39.82,39.82,0,0,1,10.56,4c3.44,2,6.31,4.93,10,6.64,6.58,3.09,13.7,1.39,20.67,1.66,8.59,0.33,14.05,5.47,19.92,11.14,4.66,4.5,9.44,8.36,15.68,10.41,7,2.29,14.46,2.55,21.36,5.09,4.3,1.58,7.68,4.58,11.78,6.52,3.16,1.49,6,1.42,9.4,1.4,5.54,0,8,3.68,12.68,5.73a21.83,21.83,0,0,0,11.1,1.62c1.9-.19,1.92-3.19,0-3a19.17,19.17,0,0,1-13.13-3.18c-2.65-1.82-4.69-3.84-8.06-4.17-4.94-.49-8.63.25-13.13-2.47-3-1.82-5.81-3.78-9.11-5.05-7.12-2.75-14.88-3-22.09-5.37-7.93-2.64-13-8.67-19-14-4.57-4.07-9.51-7-15.72-7.51-9.36-.78-17.32,1.67-25.57-4.27-6.52-4.7-12.55-7.08-20.35-9-8.51-2.07-15-5-21.12-11.39-5.61-5.9-10.74-11-19.15-12.1-6.43-.87-15.47-1.58-20.64,3.13-1.43,1.3.7,3.42,2.12,2.12h0Z" transform="translate(-259 -206)" fill="#333"/><path d="M659.62,774.31a29.16,29.16,0,0,1,12,4.64c1.61,1.07,3.11-1.52,1.51-2.59a31.21,31.21,0,0,0-12.74-4.94c-1.89-.29-2.7,2.6-0.8,2.89h0Z" transform="translate(-259 -206)" fill="#333"/></svg>